<?xml version="1.0" encoding="UTF-8"?>
<svg id="Layer_1" data-name="Layer 1" xmlns="http://www.w3.org/2000/svg" viewBox="0 0 68.71 73.37">
  <g>
    <path d="M26.71,37.02H10.32c-5.69,0-10.32-4.63-10.32-10.32V10.31C0,4.63,4.63,0,10.32,0h16.39c5.69,0,10.32,4.63,10.32,10.31v16.39c0,5.69-4.63,10.32-10.32,10.32ZM10.32,5c-2.93,0-5.32,2.38-5.32,5.31v16.39c0,2.93,2.38,5.32,5.32,5.32h16.39c2.93,0,5.32-2.38,5.32-5.32V10.31c0-2.93-2.38-5.31-5.32-5.31H10.32Z" fill="#231f20"/>
    <path d="M60.61,32.29h-11.35c-4.47,0-8.1-3.63-8.1-8.1v-11.35c0-4.47,3.63-8.1,8.1-8.1h11.35c4.47,0,8.1,3.63,8.1,8.1v11.35c0,4.47-3.63,8.1-8.1,8.1ZM49.26,9.74c-1.71,0-3.1,1.39-3.1,3.1v11.35c0,1.71,1.39,3.1,3.1,3.1h11.35c1.71,0,3.1-1.39,3.1-3.1v-11.35c0-1.71-1.39-3.1-3.1-3.1h-11.35Z" fill="#231f20"/>
  </g>
  <g>
    <path d="M58.4,73.37h-16.39c-5.69,0-10.31-4.63-10.31-10.32v-16.39c0-5.69,4.63-10.32,10.31-10.32h16.39c5.69,0,10.31,4.63,10.31,10.32v16.39c0,5.69-4.63,10.32-10.31,10.32ZM42,41.35c-2.93,0-5.31,2.38-5.31,5.32v16.39c0,2.93,2.38,5.32,5.31,5.32h16.39c2.93,0,5.31-2.38,5.31-5.32v-16.39c0-2.93-2.38-5.32-5.31-5.32h-16.39Z" fill="#231f20"/>
    <path d="M19.45,68.63h-11.35c-4.47,0-8.1-3.63-8.1-8.1v-11.35c0-4.47,3.63-8.1,8.1-8.1h11.35c4.47,0,8.1,3.63,8.1,8.1v11.35c0,4.47-3.63,8.1-8.1,8.1ZM8.1,46.08c-1.71,0-3.1,1.39-3.1,3.1v11.35c0,1.71,1.39,3.1,3.1,3.1h11.35c1.71,0,3.1-1.39,3.1-3.1v-11.35c0-1.71-1.39-3.1-3.1-3.1h-11.35Z" fill="#231f20"/>
  </g>
</svg>